<svg id="Capa_1" data-name="Capa 1" xmlns="http://www.w3.org/2000/svg" viewBox="0 0 1080 1080"><defs><style>.cls-1{fill:#ad8bb4;}</style></defs><path class="cls-1" d="M266.67,540.72v-.23c0-22.52,16.86-41,40.85-41,12.22,0,20.26,3.62,27.16,8.94A7,7,0,0,1,337.4,514a7,7,0,0,1-11.09,5.43c-5.44-4.41-11.32-7.13-18.9-7.13-15.05,0-26.14,12.45-26.14,28v.23c0,15.5,11,28.06,26.14,28.06,8.37,0,14-2.71,19.8-7.58a6.36,6.36,0,0,1,4.19-1.58,6.61,6.61,0,0,1,6.56,6.45,6.72,6.72,0,0,1-2.26,5c-7.47,6.56-16,10.63-28.74,10.63C283.87,581.45,266.67,563.46,266.67,540.72Z"/><path class="cls-1" d="M347.91,540.72v-.23c0-22.29,17.2-41,41.53-41s41.3,18.44,41.3,40.73v.23c0,22.29-17.19,41-41.52,41S347.91,563,347.91,540.72Zm68.24,0v-.23c0-15.39-11.2-28.18-26.93-28.18s-26.71,12.56-26.71,28v.23c0,15.39,11.2,28.06,26.93,28.06S416.15,556.11,416.15,540.72Z"/><path class="cls-1" d="M447.6,507.45a7,7,0,0,1,7-7h1.47c3.4,0,5.32,1.7,7.25,4.08l39.6,51.26V507.11a6.85,6.85,0,0,1,13.69,0v66.53a6.77,6.77,0,0,1-6.79,6.91h-.56c-3.28,0-5.32-1.7-7.24-4.19l-40.74-52.73v50.24a6.85,6.85,0,0,1-13.69,0Z"/><path class="cls-1" d="M556.45,513.78H537.21a6.45,6.45,0,0,1,0-12.9h52.62a6.45,6.45,0,0,1,0,12.9H570.48v60a7,7,0,0,1-14,0Z"/><path class="cls-1" d="M610.31,507.9a6.91,6.91,0,0,1,7-7h28.29c10,0,17.77,2.95,22.86,7.93A23.92,23.92,0,0,1,675,525.89v.23c0,12.67-7.35,20.37-18,23.65l15.16,19.12c1.36,1.7,2.27,3.17,2.27,5.32a6.57,6.57,0,0,1-6.68,6.45A8,8,0,0,1,661,577l-19.24-24.56H624.23v21.28a7,7,0,0,1-13.92,0Zm34.28,32.25c10,0,16.3-5.2,16.3-13.24v-.23c0-8.48-6.11-13.12-16.41-13.12H624.23v26.59Z"/><path class="cls-1" d="M688.61,540.72v-.23c0-22.29,17.2-41,41.52-41s41.31,18.44,41.31,40.73v.23c0,22.29-17.2,41-41.53,41S688.61,563,688.61,540.72Zm68.23,0v-.23c0-15.39-11.2-28.18-26.93-28.18s-26.71,12.56-26.71,28v.23c0,15.39,11.21,28.06,26.93,28.06S756.84,556.11,756.84,540.72Z"/><path class="cls-1" d="M788.29,507.22a7,7,0,0,1,13.92,0v60.2h35.87a6.34,6.34,0,1,1,0,12.67H795.31a6.91,6.91,0,0,1-7-7Z"/><path class="cls-1" d="M858.33,507.22a7,7,0,0,1,13.92,0v60.2h35.87a6.34,6.34,0,0,1,0,12.67H865.34a6.9,6.9,0,0,1-7-7Z"/><path class="cls-1" d="M920.33,540.72v-.23c0-22.29,17.2-41,41.53-41s41.3,18.44,41.3,40.73v.23c0,22.29-17.2,41-41.53,41S920.33,563,920.33,540.72Zm68.24,0v-.23c0-15.39-11.21-28.18-26.94-28.18s-26.7,12.56-26.7,28v.23c0,15.39,11.2,28.06,26.93,28.06S988.57,556.11,988.57,540.72Z"/><path class="cls-1" d="M248,624.82h0A6,6,0,0,1,243.77,635H82.7a6,6,0,0,1-6-6V451a6,6,0,0,1,6-6H243.77A6,6,0,0,1,248,455.18h0a5.93,5.93,0,0,1-4.21,1.75H186.4a6,6,0,0,0-6,6v.2a6,6,0,0,0,6,6h33.31a6,6,0,0,1,4.22,10.18l-48,48a6,6,0,0,1-8.43,0l-48-48a6,6,0,0,1,4.21-10.18h33.79a6,6,0,0,0,6-6v-.2a6,6,0,0,0-6-6H95a6,6,0,0,0-6,6v62.46a6,6,0,0,0,6,6h.21a6,6,0,0,0,6-6v-33a6,6,0,0,1,10.18-4.22L159.14,536a6,6,0,0,1,0,8.44l-47.88,47.68a6,6,0,0,1-10.17-4.25l.1-33.17a6,6,0,0,0-6-6H95a6,6,0,0,0-6,5.95l-.18,62.45a6,6,0,0,0,6,6h62.66a6,6,0,0,0,6-6v-.2a6,6,0,0,0-6-6H123.81a6,6,0,0,1-4.2-10.2l48.1-47.8a6,6,0,0,1,8.42,0l47.8,47.8A6,6,0,0,1,219.71,611H186.4a6,6,0,0,0-6,6v.2a6,6,0,0,0,6,6h57.37A5.93,5.93,0,0,1,248,624.82Z"/></svg>